<?xml version="1.0" standalone="no"?>
<!DOCTYPE svg PUBLIC "-//W3C//DTD SVG 20010904//EN"
 "http://www.w3.org/TR/2001/REC-SVG-20010904/DTD/svg10.dtd">
<svg version="1.0" xmlns="http://www.w3.org/2000/svg"
 width="568.000000pt" height="568.000000pt" viewBox="0 0 568.000000 568.000000"
 preserveAspectRatio="xMidYMid meet">
<metadata>
Created by potrace 1.14, written by Peter Selinger 2001-2017
</metadata>
<g transform="translate(0.000000,568.000000) scale(0.100000,-0.100000)"
fill="#000000" stroke="none">
<path d="M3198 5542 c-456 -1 -828 -5 -829 -10 -1 -10 -1 -1091 0 -1125 l1
-27 838 2 837 3 0 572 c0 367 -4 575 -10 580 -6 4 -382 7 -837 5z"/>
<path d="M2369 4073 c-3 -129 -1 -325 4 -329 4 -4 1122 -7 1587 -4 l85 0 -1
173 c-1 94 -2 178 -3 185 -1 9 -175 12 -836 12 l-835 0 -1 -37z"/>
<path d="M4682 3653 c-63 -31 -75 -76 -58 -225 3 -29 8 -78 11 -108 3 -30 8
-66 10 -80 2 -14 9 -61 15 -105 7 -44 14 -89 16 -100 17 -88 18 -83 -24 -138
-53 -68 -115 -133 -177 -182 -77 -62 -155 -146 -156 -169 -2 -26 -3 -19 16
-113 24 -116 35 -153 45 -153 5 0 117 108 249 240 l240 240 53 -5 c29 -3 69
-7 88 -10 19 -3 58 -7 85 -10 28 -3 61 -7 75 -9 14 -3 52 -8 85 -11 33 -4 71
-9 85 -11 14 -2 61 -6 105 -10 77 -6 81 -6 107 20 29 30 44 88 33 136 -9 42
-54 76 -112 84 -26 4 -57 9 -68 11 -11 2 -40 7 -65 10 -25 3 -70 10 -100 15
-30 5 -75 12 -100 15 -25 3 -55 7 -67 9 -11 3 -42 8 -67 11 -47 7 -63 19 -64
45 0 8 -3 31 -6 50 -4 19 -9 58 -11 85 -2 28 -6 59 -8 70 -3 11 -8 47 -11 80
-4 33 -9 71 -11 85 -2 14 -6 45 -9 70 -12 101 -29 133 -87 162 -43 22 -75 22
-117 1z"/>
<path d="M2369 3434 c0 -19 -1 -105 -2 -191 l0 -158 39 -2 c111 -6 244 -7 244
-2 0 3 21 3 48 0 26 -3 65 -4 87 -1 22 3 53 2 70 -2 16 -4 33 -4 37 0 5 5 28
6 51 3 23 -3 60 -4 82 -1 22 3 53 2 70 -2 16 -4 33 -4 37 0 5 5 28 6 51 3 23
-3 60 -4 82 -1 22 3 53 2 70 -2 16 -4 33 -4 37 0 5 5 28 6 51 3 23 -3 60 -4
82 -1 22 3 53 2 70 -2 16 -4 33 -4 37 0 5 5 28 6 51 3 23 -3 60 -4 82 -1 22 3
53 2 69 -2 17 -4 35 -3 41 2 7 5 14 7 17 4 8 -7 133 -7 156 0 17 6 18 22 18
189 0 107 -4 185 -10 189 -5 3 -382 6 -838 6 l-828 0 -1 -34z"/>
<path d="M2438 2822 c-62 -3 -68 -5 -70 -25 -3 -48 -6 -74 -11 -117 -4 -25 -9
-85 -13 -135 -3 -49 -7 -94 -7 -99 -2 -8 1362 -12 1700 -7 l32 1 -4 51 c-2 28
-7 94 -11 147 -4 54 -8 108 -9 122 -2 14 -3 33 -4 42 -1 17 -48 18 -768 20
-423 2 -798 2 -835 0z"/>
<path d="M2505 2170 c-3 -4 19 -23 48 -42 28 -20 90 -69 137 -109 72 -63 215
-182 270 -226 34 -27 237 -197 265 -222 17 -15 91 -75 165 -133 74 -59 167
-136 205 -173 39 -37 113 -97 165 -135 52 -38 108 -80 124 -94 32 -29 48 -32
68 -13 82 79 370 211 508 233 24 4 44 14 48 22 9 26 -58 209 -127 342 -103
200 -121 238 -147 314 -39 110 -46 126 -55 126 -5 0 -102 -94 -216 -208 -215
-216 -265 -260 -303 -267 -27 -5 -68 15 -97 48 -65 76 -53 117 80 263 76 83
196 200 228 222 23 15 37 32 42 49 3 10 -1402 12 -1408 3z"/>
<path d="M2153 2072 c-12 -15 -30 -37 -41 -50 -11 -13 -35 -41 -52 -62 -17
-21 -41 -49 -52 -62 -10 -13 -27 -32 -36 -43 -10 -11 -30 -36 -45 -56 l-28
-37 61 -48 c33 -27 60 -52 60 -56 0 -5 6 -8 14 -8 8 0 16 -4 18 -9 2 -5 31
-32 66 -60 35 -27 87 -70 115 -95 29 -25 86 -72 127 -106 41 -34 95 -79 120
-100 25 -21 128 -106 230 -190 102 -84 193 -161 203 -172 10 -10 21 -18 25
-18 4 0 23 -15 42 -33 19 -18 60 -52 90 -77 30 -25 57 -47 60 -50 3 -3 41 -34
85 -70 44 -35 82 -67 85 -70 6 -6 119 -101 135 -112 6 -5 28 -24 50 -43 68
-60 69 -60 95 -2 53 119 150 353 150 361 0 2 -35 32 -77 67 -43 35 -80 66 -83
69 -3 3 -30 25 -60 50 -30 25 -57 47 -60 50 -7 7 -64 55 -125 105 -27 22 -83
69 -125 105 -42 36 -94 79 -115 95 -21 17 -44 36 -51 42 -7 7 -52 45 -101 85
-81 66 -106 87 -152 128 -9 8 -64 54 -121 101 -58 48 -116 96 -130 108 -14 11
-29 24 -35 29 -5 4 -78 65 -161 135 -83 70 -153 127 -155 127 -2 0 -14 -13
-26 -28z"/>
<path d="M1475 1565 c-22 -7 -87 -28 -145 -45 -122 -37 -161 -50 -175 -61 -7
-5 -10 -214 -10 -601 l0 -593 193 -2 192 -2 0 47 c1 48 1 1056 0 1195 0 42 -3
77 -7 77 -5 -1 -26 -7 -48 -15z"/>
<path d="M1790 880 l0 -620 744 0 c410 0 747 4 750 8 3 5 -34 41 -82 79 -48
39 -97 79 -109 90 -25 21 -69 57 -173 143 -41 34 -87 71 -101 83 -51 43 -116
97 -214 177 -55 45 -124 103 -153 128 -29 25 -68 57 -86 71 -50 38 -232 188
-247 203 -8 8 -54 46 -104 87 -102 83 -171 140 -190 159 -8 6 -18 12 -24 12
-8 0 -11 -186 -11 -620z"/>
<path d="M755 1379 c-325 -96 -358 -111 -490 -223 -84 -71 -110 -102 -145
-174 -55 -113 -62 -162 -64 -432 -1 -135 0 -255 2 -267 l4 -23 398 0 c219 0
405 3 414 6 14 6 16 66 16 575 0 536 -1 569 -17 568 -10 -1 -63 -14 -118 -30z"/>
<path d="M4468 990 c-66 -17 -228 -87 -228 -99 0 -3 -12 -12 -27 -18 -50 -22
-188 -139 -224 -189 -66 -92 -187 -378 -175 -411 4 -10 80 -13 381 -13 l375 0
0 58 c2 223 -2 665 -6 676 -6 16 -15 16 -96 -4z"/>
</g>
</svg>
